<svg xmlns="http://www.w3.org/2000/svg" viewBox="0 0 496.096 496.096"><path fill="#fff" d="M259.41 247.998L493.754 13.654c3.123-3.124 3.123-8.188 0-11.312-3.124-3.123-8.188-3.123-11.312 0L248.098 236.686 13.754 2.342c-3.178-3.07-8.242-2.98-11.312.197-2.994 3.1-2.994 8.014 0 11.114l234.344 234.344L2.442 482.342c-3.178 3.07-3.266 8.134-.196 11.312s8.134 3.266 11.312.196c.067-.064.132-.13.196-.196L248.098 259.31l234.344 234.344c3.178 3.07 8.242 2.982 11.312-.196 2.995-3.1 2.995-8.016 0-11.116L259.41 247.998z"/></svg>
