<svg xmlns="http://www.w3.org/2000/svg" viewBox="0 0 512 512" fill="#111"><path d="M437.02 74.98C388.666 26.628 324.38 0 256 0 187.62 0 123.33 26.63 74.98 74.98 26.628 123.332 0 187.62 0 256s26.628 132.668 74.98 181.02C123.33 485.37 187.62 512 256 512c68.38 0 132.667-26.628 181.02-74.98C485.37 388.667 512 324.38 512 256s-26.63-132.667-74.98-181.02zM256 482C131.383 482 30 380.617 30 256S131.383 30 256 30s226 101.383 226 226-101.383 226-226 226z"/><path d="M352.4 112.467H159.6c-8.284 0-15 6.716-15 15v257.066c0 5.2 2.692 10.027 7.114 12.76 4.423 2.733 9.945 2.982 14.594.657L256 353.104l89.69 44.845c2.118 1.057 4.416 1.58 6.71 1.58 2.74 0 5.477-.75 7.886-2.24 4.422-2.732 7.114-7.56 7.114-12.76V127.468c0-8.284-6.716-15-15-15zm-15 247.796l-74.692-37.345c-4.223-2.11-9.193-2.11-13.416 0L174.6 360.263V142.467h162.8v217.796z"/></svg>